<mxfile host="app.diagrams.net" modified="2023-02-12T05:44:31.832Z" agent="5.0 (Windows NT 10.0; Win64; x64) AppleWebKit/537.36 (KHTML, like Gecko) Chrome/109.0.0.0 Safari/537.36" version="20.8.4" etag="IpZv16EWtIPAr-WGsd-c" type="github">
  <diagram id="UIQf2Zyly3MtFe-4tsnq" name="第 1 页">
    <mxGraphModel dx="1221" dy="731" grid="1" gridSize="10" guides="1" tooltips="1" connect="1" arrows="1" fold="1" page="1" pageScale="1" pageWidth="827" pageHeight="1169" math="0" shadow="0">
      <root>
        <mxCell id="0" />
        <mxCell id="1" parent="0" />
        <mxCell id="M1gGGHgAKyljeOJT9MuP-1" value="" style="ellipse;whiteSpace=wrap;html=1;" vertex="1" parent="1">
          <mxGeometry x="120" y="160" width="240" height="120" as="geometry" />
        </mxCell>
        <mxCell id="M1gGGHgAKyljeOJT9MuP-2" value="" style="ellipse;whiteSpace=wrap;html=1;" vertex="1" parent="1">
          <mxGeometry x="400" y="160" width="240" height="120" as="geometry" />
        </mxCell>
        <mxCell id="M1gGGHgAKyljeOJT9MuP-4" value="" style="verticalLabelPosition=bottom;verticalAlign=top;html=1;shape=mxgraph.basic.acute_triangle;dx=0.5;" vertex="1" parent="1">
          <mxGeometry x="150" y="190" width="30" height="30" as="geometry" />
        </mxCell>
        <mxCell id="M1gGGHgAKyljeOJT9MuP-5" value="" style="verticalLabelPosition=bottom;verticalAlign=top;html=1;shape=mxgraph.basic.acute_triangle;dx=0.5;" vertex="1" parent="1">
          <mxGeometry x="240" y="170" width="30" height="30" as="geometry" />
        </mxCell>
        <mxCell id="M1gGGHgAKyljeOJT9MuP-6" value="" style="verticalLabelPosition=bottom;verticalAlign=top;html=1;shape=mxgraph.basic.6_point_star" vertex="1" parent="1">
          <mxGeometry x="190" y="180" width="40" height="30" as="geometry" />
        </mxCell>
        <mxCell id="M1gGGHgAKyljeOJT9MuP-7" value="" style="verticalLabelPosition=bottom;verticalAlign=top;html=1;shape=mxgraph.basic.6_point_star" vertex="1" parent="1">
          <mxGeometry x="290" y="200" width="40" height="30" as="geometry" />
        </mxCell>
        <mxCell id="M1gGGHgAKyljeOJT9MuP-8" value="" style="verticalLabelPosition=bottom;verticalAlign=top;html=1;shape=mxgraph.basic.rect;fillColor2=none;strokeWidth=1;size=20;indent=5;" vertex="1" parent="1">
          <mxGeometry x="195" y="230" width="30" height="30" as="geometry" />
        </mxCell>
        <mxCell id="M1gGGHgAKyljeOJT9MuP-9" value="" style="verticalLabelPosition=bottom;verticalAlign=top;html=1;shape=mxgraph.basic.rect;fillColor2=none;strokeWidth=1;size=20;indent=5;" vertex="1" parent="1">
          <mxGeometry x="240" y="220" width="30" height="30" as="geometry" />
        </mxCell>
        <mxCell id="M1gGGHgAKyljeOJT9MuP-10" value="" style="verticalLabelPosition=bottom;verticalAlign=top;html=1;shape=mxgraph.basic.rect;fillColor2=none;strokeWidth=1;size=20;indent=5;" vertex="1" parent="1">
          <mxGeometry x="430" y="210" width="30" height="30" as="geometry" />
        </mxCell>
        <mxCell id="M1gGGHgAKyljeOJT9MuP-11" value="" style="verticalLabelPosition=bottom;verticalAlign=top;html=1;shape=mxgraph.basic.rect;fillColor2=none;strokeWidth=1;size=20;indent=5;" vertex="1" parent="1">
          <mxGeometry x="490" y="230" width="30" height="30" as="geometry" />
        </mxCell>
        <mxCell id="M1gGGHgAKyljeOJT9MuP-12" value="" style="verticalLabelPosition=bottom;verticalAlign=top;html=1;shape=mxgraph.basic.acute_triangle;dx=0.5;" vertex="1" parent="1">
          <mxGeometry x="470" y="180" width="30" height="30" as="geometry" />
        </mxCell>
        <mxCell id="M1gGGHgAKyljeOJT9MuP-13" value="" style="verticalLabelPosition=bottom;verticalAlign=top;html=1;shape=mxgraph.basic.acute_triangle;dx=0.5;" vertex="1" parent="1">
          <mxGeometry x="510" y="170" width="30" height="30" as="geometry" />
        </mxCell>
        <mxCell id="M1gGGHgAKyljeOJT9MuP-14" value="" style="verticalLabelPosition=bottom;verticalAlign=top;html=1;shape=mxgraph.basic.4_point_star_2;dx=0.8;" vertex="1" parent="1">
          <mxGeometry x="540" y="230" width="30" height="30" as="geometry" />
        </mxCell>
        <mxCell id="M1gGGHgAKyljeOJT9MuP-15" value="" style="verticalLabelPosition=bottom;verticalAlign=top;html=1;shape=mxgraph.basic.4_point_star_2;dx=0.8;" vertex="1" parent="1">
          <mxGeometry x="560" y="190" width="30" height="30" as="geometry" />
        </mxCell>
      </root>
    </mxGraphModel>
  </diagram>
</mxfile>
